<svg width="1280" height="640" viewBox="0 0 1280 640" fill="none" xmlns="http://www.w3.org/2000/svg"><defs><linearGradient id="a" x1="0%" y1="0%" x2="100%" y2="100%"><stop offset="0%" style="stop-color:#0a0a0f;stop-opacity:1"/><stop offset="30%" style="stop-color:#0f0f1a;stop-opacity:1"/><stop offset="70%" style="stop-color:#1a1a2e;stop-opacity:1"/><stop offset="100%" style="stop-color:#16213e;stop-opacity:1"/></linearGradient><linearGradient id="g" x1="0%" y1="0%" x2="100%" y2="100%"><stop offset="0%" style="stop-color:#fff;stop-opacity:.9"/><stop offset="100%" style="stop-color:#ddd6fe;stop-opacity:.6"/></linearGradient><linearGradient id="b" x1="0%" y1="0%" x2="100%" y2="0%"><stop offset="0%" style="stop-color:#fff;stop-opacity:1"/><stop offset="50%" style="stop-color:#e0e7ff;stop-opacity:1"/><stop offset="100%" style="stop-color:#c7d2fe;stop-opacity:1"/></linearGradient><linearGradient id="j" x1="0%" y1="0%" x2="100%" y2="100%"><stop offset="0%" style="stop-color:#0a0a15;stop-opacity:.95"/><stop offset="100%" style="stop-color:#1a1a2e;stop-opacity:.95"/></linearGradient><filter id="i" x="-50%" y="-50%" width="200%" height="200%"><feGaussianBlur in="SourceGraphic" stdDeviation=".5" result="blur"/><feOffset result="offset"/><feMerge><feMergeNode in="blur"/><feMergeNode in="SourceGraphic"/></feMerge></filter><filter id="f" x="-100%" y="-100%" width="300%" height="300%"><feGaussianBlur stdDeviation="4" result="glow"/><feMerge><feMergeNode in="glow"/><feMergeNode in="SourceGraphic"/></feMerge></filter><filter id="c" x="-50%" y="-50%" width="200%" height="200%"><feGaussianBlur stdDeviation="2" result="glow"/><feMerge><feMergeNode in="glow"/><feMergeNode in="SourceGraphic"/></feMerge></filter><filter id="k" x="-50%" y="-50%" width="200%" height="200%"><feDropShadow dx="0" dy="8" stdDeviation="24" flood-color="#000" flood-opacity=".4"/><feDropShadow dx="0" dy="2" stdDeviation="8" flood-color="#000" flood-opacity=".5"/></filter><radialGradient id="h" cx="50%" cy="50%" r="50%"><stop offset="0%" style="stop-color:#000;stop-opacity:1"/><stop offset="60%" style="stop-color:#1a1a1a;stop-opacity:1"/><stop offset="100%" style="stop-color:#0a0a0a;stop-opacity:1"/></radialGradient><radialGradient id="e" cx="50%" cy="50%" r="80%"><stop offset="30%" style="stop-color:#ff6b35;stop-opacity:0"/><stop offset="50%" style="stop-color:#f7931e;stop-opacity:.8"/><stop offset="70%" style="stop-color:#ffcc02;stop-opacity:.9"/><stop offset="85%" style="stop-color:#ff6b35;stop-opacity:.7"/><stop offset="100%" style="stop-color:#e74c3c;stop-opacity:.3"/></radialGradient><radialGradient id="d" cx="50%" cy="50%" r="90%"><stop offset="0%" style="stop-color:#4a90ff;stop-opacity:.1"/><stop offset="50%" style="stop-color:#6c5ce7;stop-opacity:.3"/><stop offset="100%" style="stop-color:#a29bfe;stop-opacity:.1"/></radialGradient></defs><path fill="url(#a)" d="M0 0h1280v640H0z"/><g opacity=".08"><circle cx="200" cy="150" r="100" fill="#6c5ce7" opacity=".3"/><circle cx="1100" cy="500" r="80" fill="#fd79a8" opacity=".2"/><circle cx="900" cy="100" r="60" fill="#74b9ff" opacity=".25"/></g><g opacity=".6" fill="#fff"><circle cx="150" cy="100" r="1" opacity=".9"/><circle cx="300" cy="80" r=".8" opacity=".7"/><circle cx="450" cy="120" r=".6" opacity=".8"/><circle cx="750" cy="110" r=".7" opacity=".6"/><circle cx="900" cy="90" r=".9" opacity=".8"/><circle cx="1050" cy="130" r=".5" opacity=".7"/><circle cx="1200" cy="70" r="1.1" opacity=".9"/><circle cx="80" cy="500" r=".6" opacity=".5"/><circle cx="1150" cy="180" r=".8" opacity=".7"/><circle cx="950" cy="550" r=".9" opacity=".8"/><circle cx="200" cy="580" r=".7" opacity=".6"/><circle cx="1100" cy="580" r="1" opacity=".9"/></g><g text-anchor="middle"><text font-family="system-ui, -apple-system, 'SF Pro Display', 'Segoe UI', sans-serif" font-size="72" font-weight="900" fill="url(#b)" filter="url(#c)" opacity=".98" transform="translate(640 80)">
  prune-mod
</text><text y="50" font-family="system-ui, -apple-system, 'SF Pro Display', sans-serif" font-size="24" font-weight="600" fill="#ffcc02" opacity=".95" transform="translate(640 80)">
  Collapse node_modules like a cosmic black hole
</text><text y="85" font-family="system-ui, -apple-system, 'SF Pro Text', sans-serif" font-size="18" font-weight="400" fill="#fff" opacity=".85" transform="translate(640 80)">
  Harness gravitational forces to compress unnecessary files into oblivion
</text><text y="110" font-family="system-ui, -apple-system, 'SF Pro Text', sans-serif" font-size="18" font-weight="400" fill="#fff" opacity=".85" transform="translate(640 80)">
  Reducing size by up to 60% through cosmic compression
</text></g><g transform="translate(320 320)"><circle r="100" fill="url(#d)" opacity=".6"/><ellipse rx="90" ry="35" fill="url(#e)" transform="rotate(-15)" filter="url(#f)" opacity=".9"/><ellipse rx="70" ry="25" stroke="url(#e)" stroke-width="2" transform="rotate(-15)" opacity=".7"/><g opacity=".9"><g transform="rotate(-45)"><rect x="50" y="-2" width="10" height="12" rx="1.5" fill="url(#g)" transform="rotate(25)" opacity=".95"><animateTransform attributeName="transform" type="rotate" values="25; 45; 65" dur="8s" repeatCount="indefinite"/><animate attributeName="opacity" values="0.95; 0.5; 0.1" dur="8s" repeatCount="indefinite"/></rect></g><g transform="rotate(80)"><rect x="55" y="-1.5" width="8" height="10" rx="1" fill="#ff6b35" transform="rotate(-30)" opacity=".85"><animateTransform attributeName="transform" type="rotate" values="-30; -10; 10" dur="6s" repeatCount="indefinite"/><animate attributeName="opacity" values="0.85; 0.4; 0.1" dur="6s" repeatCount="indefinite"/></rect></g><g transform="rotate(160)"><rect x="52" y="-1" width="6" height="8" rx=".5" fill="#f7931e" transform="rotate(15)" opacity=".8"><animateTransform attributeName="transform" type="rotate" values="15; 35; 55" dur="10s" repeatCount="indefinite"/><animate attributeName="opacity" values="0.8; 0.3; 0.1" dur="10s" repeatCount="indefinite"/></rect></g><g transform="rotate(240)"><rect x="58" y="-2" width="9" height="11" rx="1" fill="url(#g)" transform="rotate(-20)" opacity=".9"><animateTransform attributeName="transform" type="rotate" values="-20; 0; 20" dur="7s" repeatCount="indefinite"/><animate attributeName="opacity" values="0.9; 0.45; 0.1" dur="7s" repeatCount="indefinite"/></rect></g><g transform="rotate(300)"><rect x="60" y="-1.5" width="7" height="9" rx=".5" fill="#74b9ff" transform="rotate(10)" opacity=".85"><animateTransform attributeName="transform" type="rotate" values="10; 30; 50" dur="9s" repeatCount="indefinite"/><animate attributeName="opacity" values="0.85; 0.4; 0.1" dur="9s" repeatCount="indefinite"/></rect></g></g><circle r="38" fill="url(#h)" filter="url(#i)"/><circle r="38" stroke="rgba(0,0,0,0.9)" stroke-width="1.5"/><circle r="58" stroke="rgba(255,200,100,0.3)" stroke-width=".8" stroke-dasharray="2,3" opacity=".8"/><g opacity=".15" stroke-width=".8"><circle r="75" stroke="rgba(180,180,255,0.5)"/><circle r="95" stroke="rgba(180,180,255,0.4)"/></g><g transform="translate(0 70)"><rect x="-28" y="-12" width="56" height="24" fill="rgba(0,0,0,0.8)" rx="12" stroke="rgba(255,200,100,0.5)" stroke-width="2"/><text y="5" font-family="system-ui, -apple-system, 'SF Pro Display', sans-serif" font-size="16" font-weight="900" fill="#ffcc02" text-anchor="middle" opacity=".98">
  -60%
</text></g></g><g transform="translate(700 250)"><circle r="4" fill="#ff6b35" opacity=".9"/><text x="20" y="5" font-family="system-ui, -apple-system, 'SF Pro Text', sans-serif" font-size="16" font-weight="500" fill="#fff" opacity=".9">
  Event horizon optimization - files beyond recovery
</text></g><g transform="translate(700 285)"><circle r="4" fill="#f7931e" opacity=".9"/><text x="20" y="5" font-family="system-ui, -apple-system, 'SF Pro Text', sans-serif" font-size="16" font-weight="500" fill="#fff" opacity=".9">
  Accretion disk scanning - intelligent pattern detection
</text></g><g transform="translate(700 320)"><circle r="4" fill="#ffcc02" opacity=".9"/><text x="20" y="5" font-family="system-ui, -apple-system, 'SF Pro Text', sans-serif" font-size="16" font-weight="500" fill="#fff" opacity=".9">
  Hawking radiation safety - preserves critical runtime files
</text></g><g transform="translate(700 355)"><circle r="4" fill="#74b9ff" opacity=".9"/><text x="20" y="5" font-family="system-ui, -apple-system, 'SF Pro Text', sans-serif" font-size="16" font-weight="500" fill="#fff" opacity=".9">
  Lightning-fast compression with TypeScript &amp; Bun
</text></g><g transform="translate(580 460)"><rect width="600" height="160" rx="16" fill="url(#j)" filter="url(#k)"/><rect width="600" height="35" rx="16" fill="rgba(0,0,0,0.4)"/><path fill="url(#j)" d="M0 25h600v10H0z"/><circle cx="20" cy="17" r="5" fill="#ff5f57" opacity=".95"/><circle cx="40" cy="17" r="5" fill="#ffbd2e" opacity=".95"/><circle cx="60" cy="17" r="5" fill="#28ca42" opacity=".95"/><text x="300" y="22" font-family="system-ui, -apple-system, 'SF Pro Text', sans-serif" font-size="11" font-weight="600" fill="#fff" text-anchor="middle" opacity=".8">
  prune-mod
</text><g font-family="'SF Mono', 'JetBrains Mono', 'Fira Code', Menlo, monospace"><text font-size="12" font-weight="700" fill="#ffcc02" opacity=".98" transform="translate(20 50)">
  $ prune-mod
</text><text y="20" font-size="11" fill="#74b9ff" opacity=".9" transform="translate(20 50)">
  🌌 Gravitational field initialized  📊 15,847 files detected
</text><text y="36" font-size="11" fill="#ff6b35" opacity=".95" transform="translate(20 50)">
  🔥 9,438 files consumed  ⚡ 184.2 MB → 62.3 MB compressed
</text><text y="56" font-size="11" font-weight="700" fill="#00b894" opacity=".98" transform="translate(20 50)">
  ✨ Black hole compression complete: 60% size reduction achieved in 1.8s
</text><text y="76" font-size="10" fill="#ddd6fe" opacity=".7" transform="translate(20 50)">
  Before singularity: 307 MB | After collapse: 123 MB | Files: 21,543 → 12,105
</text><g transform="translate(20 140)"><rect width="500" height="6" rx="3" fill="rgba(255,255,255,0.1)"/><rect width="300" height="6" rx="3" fill="url(#e)" opacity=".8"/><text x="510" y="5" font-size="10" fill="#ffcc02" font-weight="600" opacity=".9">
  60%
</text></g></g></g><g transform="translate(400 600)"><rect x="-250" y="-15" width="400" height="30" rx="15" fill="rgba(0,0,0,0.6)" stroke="rgba(255,200,100,0.3)"/><g transform="translate(-230)" fill="#ffcc02" opacity=".8"><circle r="8"/><path d="M-4-4c-1.5 0-3 1.5-3 3s1.2 2.8 2.8 3.2c.2.1.3-.1.3-.3V.6C-5.2.9-5.5 0-5.5 0-5.7-.4-6-.5-6-.5c-.4-.3.1-.3.1-.3.5.1.8.6.8.6.5.7 1.3.5 1.2.4.1-.2.2-.4.3-.5-1-.1-2-.5-2-1.9 0-.4.2-.8.5-1.1-.1-.1-.3-.6.1-1.2 0 0 .4-.1 1.1.4.4-.1.8-.1 1.2-.1s.8 0 1.2.1c.7-.5 1.1-.4 1.1-.4.4.6.2 1.1.1 1.2.3.3.5.7.5 1.1 0 1.4-1 1.8-2 1.9.1.2.3.4.3.8v1.1c0 .2.1.4.3.3 1.6-.4 2.8-1.7 2.8-3C1.6-2.5.6-4-1-4Z" fill="#0a0a0a"/></g><text x="-50" y="4" text-anchor="middle" font-family="system-ui, -apple-system, 'SF Pro Text', sans-serif" font-size="16" font-weight="600" fill="#fff" opacity=".9">
  github.com/ali-master/prune-mod
</text></g><path stroke="rgba(255,200,100,0.15)" stroke-width="2" d="M0 0h1280v640H0z"/></svg>
